0
SECTION
2
HEADER
9
$INSUNITS
70
1
9
$ACADVER
1
AC1014
9
$HANDSEED
5
FFFF
0
ENDSEC
0
SECTION
2
TABLES
0
TABLE
2
VPORT
5
8
100
AcDbSymbolTable
0
ENDTAB
0
TABLE
2
LTYPE
5
5
100
AcDbSymbolTable
0
LTYPE
5
14
100
AcDbSymbolTableRecord
100
AcDbLinetypeTableRecord
2
BYBLOCK
70
0
0
LTYPE
5
15
100
AcDbSymbolTableRecord
100
AcDbLinetypeTableRecord
2
BYLAYER
70
0
0
ENDTAB
0
TABLE
2
LAYER
5
2
100
AcDbSymbolTable
70
2
0
LAYER
5
50
100
AcDbSymbolTableRecord
100
AcDbLayerTableRecord
2
0
70
0
6
CONTINUOUS
0
ENDTAB
0
TABLE
2
STYLE
5
3
100
AcDbSymbolTable
70
1
0
STYLE
5
11
100
AcDbSymbolTableRecord
100
AcDbTextStyleTableRecord
2
STANDARD
70
0
0
ENDTAB
0
TABLE
2
VIEW
5
6
100
AcDbSymbolTable
70
0
0
ENDTAB
0
TABLE
2
UCS
5
7
100
AcDbSymbolTable
70
0
0
ENDTAB
0
TABLE
2
APPID
5
9
100
AcDbSymbolTable
70
2
0
APPID
5
12
100
AcDbSymbolTableRecord
100
AcDbRegAppTableRecord
2
ACAD
70
0
0
ENDTAB
0
TABLE
2
DIMSTYLE
5
A
100
AcDbSymbolTable
70
1
0
ENDTAB
0
TABLE
2
BLOCK_RECORD
5
1
100
AcDbSymbolTable
70
1
0
BLOCK_RECORD
5
1F
100
AcDbSymbolTableRecord
100
AcDbBlockTableRecord
2
*MODEL_SPACE
0
BLOCK_RECORD
5
1B
100
AcDbSymbolTableRecord
100
AcDbBlockTableRecord
2
*PAPER_SPACE
0
ENDTAB
0
ENDSEC
0
SECTION
2
BLOCKS
0
BLOCK
5
20
100
AcDbEntity
100
AcDbBlockBegin
2
*MODEL_SPACE
0
ENDBLK
5
21
100
AcDbEntity
100
AcDbBlockEnd
0
BLOCK
5
1C
100
AcDbEntity
100
AcDbBlockBegin
2
*PAPER_SPACE
0
ENDBLK
5
1D
100
AcDbEntity
100
AcDbBlockEnd
0
ENDSEC
0
SECTION
2
ENTITIES
0
LINE
5
100
100
AcDbEntity
8
0
100
AcDbLine
10
-5.7627416997969512
20
-2.1127416997969526
30
0
11
-5.7627416997969512
21
-2.412741699796952
31
0
0
LINE
5
101
100
AcDbEntity
8
0
100
AcDbLine
10
-5.7877416997969506
20
-2.4377416997969523
30
0
11
-5.9877416997969517
21
-2.4377416997969523
31
0
0
LINE
5
102
100
AcDbEntity
8
0
100
AcDbLine
10
-6.0877416997969513
20
-2.537741699796952
30
0
11
-6.0877416997969513
21
-2.7377416997969521
31
0
0
LINE
5
103
100
AcDbEntity
8
0
100
AcDbLine
10
-6.1127416997969508
20
-2.7627416997969525
30
0
11
-6.4127416997969515
21
-2.7627416997969525
31
0
0
LINE
5
104
100
AcDbEntity
8
0
100
AcDbLine
10
-6.4377416997969519
20
-2.7377416997969521
30
0
11
-6.4377416997969501
21
-2.537741699796952
31
0
0
LINE
5
105
100
AcDbEntity
8
0
100
AcDbLine
10
-6.7627416997969512
20
-2.412741699796952
30
0
11
-6.7627416997969512
21
-2.1127416997969526
31
0
0
LINE
5
106
100
AcDbEntity
8
0
100
AcDbLine
10
-5.9877416997969517
20
-2.0877416997969522
30
0
11
-5.7877416997969515
21
-2.0877416997969522
31
0
0
LINE
5
107
100
AcDbEntity
8
0
100
AcDbLine
10
-6.4127416997969515
20
-1.7627416997969521
30
0
11
-6.1127416997969508
21
-1.7627416997969525
31
0
0
LINE
5
108
100
AcDbEntity
8
0
100
AcDbLine
10
-5.7127416997969513
20
-2.912741699796952
30
0
11
-6.6377416997969512
21
-2.912741699796952
31
0
0
LINE
5
109
100
AcDbEntity
8
0
100
AcDbLine
10
-5.7127416997969513
20
-1.3627416997969524
30
0
11
-6.6377416997969512
21
-1.3627416997969524
31
0
0
LINE
5
110
100
AcDbEntity
8
0
100
AcDbLine
10
-6.9127416997969515
20
-2.2627416997969521
30
0
11
-6.9127416997969515
21
-2.6377416997969521
31
0
0
LINE
5
111
100
AcDbEntity
8
0
100
AcDbLine
10
-6.9127416997969515
20
-2.2627416997969521
30
0
11
-6.9127416997969515
21
-1.6377416997969523
31
0
0
LINE
5
112
100
AcDbEntity
8
0
100
AcDbLine
10
-6.9127416997969515
20
-2.6377416997969521
30
0
11
-6.6377416997969512
21
-2.912741699796952
31
0
0
LINE
5
113
100
AcDbEntity
8
0
100
AcDbLine
10
-6.9127416997969515
20
-1.6377416997969523
30
0
11
-6.6377416997969512
21
-1.3627416997969524
31
0
0
CIRCLE
5
114
100
AcDbEntity
8
0
100
AcDbCircle
10
-5.8127416997969528
20
-2.6127416997969521
30
0
40
0.054999999999999993
0
CIRCLE
5
115
100
AcDbEntity
8
0
100
AcDbCircle
10
-5.8127416997969528
20
-1.9127416997969526
30
0
40
0.054999999999999993
0
CIRCLE
5
116
100
AcDbEntity
8
0
100
AcDbCircle
10
-6.7127416997969505
20
-1.9127416997969526
30
0
40
0.054999999999999993
0
CIRCLE
5
117
100
AcDbEntity
8
0
100
AcDbCircle
10
-6.7127416997969505
20
-2.6127416997969521
30
0
40
0.054999999999999993
0
CIRCLE
5
118
100
AcDbEntity
8
0
100
AcDbCircle
10
-5.8127416997969528
20
-2.6127416997969521
30
0
40
0.15000000000000022
0
CIRCLE
5
119
100
AcDbEntity
8
0
100
AcDbCircle
10
-6.7127416997969505
20
-2.6127416997969521
30
0
40
0.15000000000000008
0
CIRCLE
5
120
100
AcDbEntity
8
0
100
AcDbCircle
10
-6.7127416997969505
20
-1.9127416997969526
30
0
40
0.15000000000000008
0
CIRCLE
5
121
100
AcDbEntity
8
0
100
AcDbCircle
10
-5.8127416997969528
20
-1.9127416997969526
30
0
40
0.15000000000000008
0
LINE
5
122
100
AcDbEntity
8
0
100
AcDbLine
10
-5.7127416997969513
20
-2.4127416997969431
30
0
11
-5.7127416997969513
21
-2.500938300921963
31
0
0
LINE
5
123
100
AcDbEntity
8
0
100
AcDbLine
10
-5.7127416997969513
20
-2.7245450986719408
30
0
11
-5.7127416997969513
21
-2.912741699796952
31
0
0
LINE
5
124
100
AcDbEntity
8
0
100
AcDbLine
10
-5.7127416997969513
20
-2.1127416997969615
30
0
11
-5.7127416997969513
21
-2.0245450986719411
31
0
0
LINE
5
125
100
AcDbEntity
8
0
100
AcDbLine
10
-5.7127416997969513
20
-1.8009383009219642
30
0
11
-5.7127416997969513
21
-1.3627416997969524
31
0
0
LINE
5
126
100
AcDbEntity
8
0
100
AcDbLine
10
-5.9877416997969526
20
-2.6127416997969521
30
0
11
-5.9877416997969526
21
-2.8299171459464905
31
0
0
LINE
5
127
100
AcDbEntity
8
0
100
AcDbLine
10
-6.5377416997969506
20
-2.6127416997969521
30
0
11
-6.5377416997969506
21
-2.7621163086829057
31
0
0
LINE
5
128
100
AcDbEntity
8
0
100
AcDbLine
10
-6.7127416997969505
20
-2.4377416997969523
30
0
11
-6.805305060152218
21
-2.4377416997969523
31
0
0
ARC
5
129
100
AcDbEntity
8
0
100
AcDbCircle
10
-6.7127416997969505
20
-2.6127416997969521
30
0
40
0.17499999999999916
100
AcDbArc
50
0
51
90
0
ARC
5
130
100
AcDbEntity
8
0
100
AcDbCircle
10
-6.2627416997969512
20
-2.2627416997969521
30
0
40
0.57008771254956803
100
AcDbArc
50
241.15891575286577
51
298.84108424713412
0
LINE
5
131
100
AcDbEntity
8
0
100
AcDbLine
10
-5.8127416997969528
20
-2.4377416997969519
30
0
11
-5.7127416997969513
21
-2.4377416997969519
31
0
0
ARC
5
132
100
AcDbEntity
8
0
100
AcDbCircle
10
-5.8127416997969528
20
-2.6127416997969521
30
0
40
0.17500000000000021
100
AcDbArc
50
90
51
180
0
LINE
5
133
100
AcDbEntity
8
0
100
AcDbLine
10
-5.8127416997969528
20
-2.0877416997969522
30
0
11
-5.7201783394416861
21
-2.0877416997969522
31
0
0
LINE
5
134
100
AcDbEntity
8
0
100
AcDbLine
10
-5.9877416997969526
20
-1.9127416997969526
30
0
11
-5.9877416997969526
21
-1.7633670909110002
31
0
0
ARC
5
135
100
AcDbEntity
8
0
100
AcDbCircle
10
-6.2627416997969512
20
-2.2627416997969521
30
0
40
0.57008771254956647
100
AcDbArc
50
-17.876741622391165
51
17.876741622391183
0
ARC
5
136
100
AcDbEntity
8
0
100
AcDbCircle
10
-5.8127416997969528
20
-1.9127416997969526
30
0
40
0.17499999999999985
100
AcDbArc
50
180
51
270
0
LINE
5
137
100
AcDbEntity
8
0
100
AcDbLine
10
-6.5377416997969506
20
-1.9127416997969526
30
0
11
-6.5377416997969506
21
-1.7633670909110002
31
0
0
LINE
5
138
100
AcDbEntity
8
0
100
AcDbLine
10
-6.7127416997969505
20
-2.0877416997969522
30
0
11
-6.8053050601522163
21
-2.0877416997969522
31
0
0
ARC
5
139
100
AcDbEntity
8
0
100
AcDbCircle
10
-6.7127416997969505
20
-1.9127416997969526
30
0
40
0.17499999999999985
100
AcDbArc
50
-90
51
0
0
ARC
5
140
100
AcDbEntity
8
0
100
AcDbCircle
10
-6.2627416997969512
20
-2.2627416997969521
30
0
40
0.57008771254956658
100
AcDbArc
50
162.12325837760883
51
197.87674162239117
0
ARC
5
141
100
AcDbEntity
8
0
100
AcDbCircle
10
-6.2627416997969512
20
-2.2627416997969521
30
0
40
0.57008771254956647
100
AcDbArc
50
61.158915752865738
51
118.84108424713433
0
CIRCLE
5
142
100
AcDbEntity
8
0
100
AcDbCircle
10
-6.2627416997969512
20
-2.2627416997969521
30
0
40
0.049999999999999906
0
LWPOLYLINE
5
143
100
AcDbEntity
8
0
100
AcDbPolyline
90
12
70
1
43
0.0
10
-6.4077416997969516
20
-2.1177416997969525
10
-6.7327416997969509
20
-2.1177416997969525
10
-6.7327416997969509
20
-2.4077416997969521
10
-6.4077416997969516
20
-2.4077416997969521
10
-6.4077416997969516
20
-2.7327416997969523
10
-6.1177416997969516
20
-2.7327416997969523
10
-6.1177416997969516
20
-2.4077416997969521
10
-5.7927416997969514
20
-2.4077416997969521
10
-5.7927416997969514
20
-2.1177416997969525
10
-6.1177416997969516
20
-2.1177416997969525
10
-6.1177416997969516
20
-1.7927416997969525
10
-6.4077416997969516
20
-1.7927416997969525
0
LWPOLYLINE
5
144
100
AcDbEntity
8
0
100
AcDbPolyline
90
4
70
1
43
0.0
10
-5.5845087014844248
20
-3.3127416997969523
10
-6.2627416997969512
20
-3.3127416997969523
42
-0.99999999999999989
10
-6.2627416997969512
20
-1.2127416997969525
10
-5.5845087014844257
20
-1.212741699796952
42
-0.54454000160711757
0
ARC
5
145
100
AcDbEntity
8
0
100
AcDbCircle
10
-5.9877416997969526
20
-2.5377416997969511
30
0
40
0.099999999999999117
100
AcDbArc
50
89.999999999999503
51
180
0
ARC
5
146
100
AcDbEntity
8
0
100
AcDbCircle
10
-6.5377416997969524
20
-2.5377416997969537
30
0
40
0.10000000000000192
100
AcDbArc
50
0
51
90
0
ARC
5
147
100
AcDbEntity
8
0
100
AcDbCircle
10
-6.5377416997969524
20
-1.9877416997969508
30
0
40
0.10000000000000192
100
AcDbArc
50
270
51
360
0
ARC
5
148
100
AcDbEntity
8
0
100
AcDbCircle
10
-5.9877416997969526
20
-1.9877416997969533
30
0
40
0.099999999999999117
100
AcDbArc
50
180
51
270.00000000000051
0
ARC
5
149
100
AcDbEntity
8
0
100
AcDbCircle
10
-5.7877416997969524
20
-2.112741699796953
30
0
40
0.02500000000000048
100
AcDbArc
50
0
51
89.999999999997954
0
ARC
5
150
100
AcDbEntity
8
0
100
AcDbCircle
10
-5.7877416997969524
20
-2.4127416997969515
30
0
40
0.02500000000000048
100
AcDbArc
50
270.00000000000409
51
360
0
ARC
5
151
100
AcDbEntity
8
0
100
AcDbCircle
10
-6.1127416997969517
20
-2.7377416997969517
30
0
40
0.025000000000000827
100
AcDbArc
50
270.00000000000205
51
360
0
ARC
5
152
100
AcDbEntity
8
0
100
AcDbCircle
10
-6.4127416997969497
20
-2.7377416997969504
30
0
40
0.025000000000001878
100
AcDbArc
50
180
51
269.99999999999591
0
LINE
5
153
100
AcDbEntity
8
0
100
AcDbLine
10
-6.5377416997969524
20
-2.4377416997969523
30
0
11
-6.7377416997969508
21
-2.4377416997969523
31
0
0
ARC
5
154
100
AcDbEntity
8
0
100
AcDbCircle
10
-6.737741699796949
20
-2.4127416997969506
30
0
40
0.025000000000001878
100
AcDbArc
50
180
51
269.99999999999591
0
ARC
5
155
100
AcDbEntity
8
0
100
AcDbCircle
10
-6.737741699796949
20
-2.1127416997969544
30
0
40
0.025000000000002229
100
AcDbArc
50
90.000000000004079
51
180
0
LINE
5
156
100
AcDbEntity
8
0
100
AcDbLine
10
-6.7377416997969508
20
-2.0877416997969522
30
0
11
-6.5377416997969524
21
-2.0877416997969527
31
0
0
LINE
5
157
100
AcDbEntity
8
0
100
AcDbLine
10
-6.4377416997969501
20
-1.9877416997969526
30
0
11
-6.4377416997969519
21
-1.7877416997969526
31
0
0
ARC
5
158
100
AcDbEntity
8
0
100
AcDbCircle
10
-6.4127416997969497
20
-1.7877416997969544
30
0
40
0.025000000000002229
100
AcDbArc
50
90.000000000004079
51
180
0
ARC
5
159
100
AcDbEntity
8
0
100
AcDbCircle
10
-6.1127416997969517
20
-1.787741699796952
30
0
40
0.024999999999999779
100
AcDbArc
50
0
51
89.999999999997954
0
LINE
5
160
100
AcDbEntity
8
0
100
AcDbLine
10
-6.0877416997969522
20
-1.7877416997969526
30
0
11
-6.0877416997969513
21
-1.9877416997969526
31
0
0
LINE
5
161
100
AcDbEntity
8
0
100
AcDbLine
10
-5.8127416997969528
20
-1.9127416997969526
30
0
11
-5.3127416997969528
21
-1.9127416997969526
31
0
0
LINE
5
162
100
AcDbEntity
8
0
100
AcDbLine
10
-5.3127416997969528
20
-1.9127416997969526
30
0
11
-5.3127416997969528
21
-1.8627416997969526
31
0
0
CIRCLE
5
163
100
AcDbEntity
8
0
100
AcDbCircle
10
-5.3127416997969528
20
-1.8627416997969526
30
0
40
0.14999999999999999
0
LINE
5
164
100
AcDbEntity
8
0
100
AcDbLine
10
-5.3127416997969528
20
-1.9127416997969526
30
0
11
-4.7127416997969522
21
-1.9127416997969526
31
0
0
LINE
5
165
100
AcDbEntity
8
0
100
AcDbLine
10
-4.7127416997969522
20
-1.9127416997969526
30
0
11
-4.7127416997969522
21
-1.4627416997969527
31
0
0
CIRCLE
5
166
100
AcDbEntity
8
0
100
AcDbCircle
10
-4.7127416997969522
20
-1.4627416997969527
30
0
40
0.14999999999999999
0
LINE
5
167
100
AcDbEntity
8
0
100
AcDbLine
10
-5.8127416997969528
20
-1.2127416997969525
30
0
11
-5.7127416997969522
21
-1.2127416997969525
31
0
0
LINE
5
168
100
AcDbEntity
8
0
100
AcDbLine
10
-5.7127416997969522
20
-0.91274169979695241
30
0
11
-5.3127416997969528
21
-0.91274169979695241
31
0
0
LINE
5
169
100
AcDbEntity
8
0
100
AcDbLine
10
-5.7127416997969522
20
-0.91274169979695241
30
0
11
-5.7427416997969525
21
-0.91274169979695241
31
0
0
LINE
5
170
100
AcDbEntity
8
0
100
AcDbLine
10
-5.7427416997969525
20
-0.91274169979695241
30
0
11
-5.7427416997969525
21
-1.2599999847726557
31
0
0
LINE
5
171
100
AcDbEntity
8
0
100
AcDbLine
10
-5.3127416997969528
20
-0.91274169979695241
30
0
11
-5.2827416997969525
21
-0.91274169979695241
31
0
0
LINE
5
172
100
AcDbEntity
8
0
100
AcDbLine
10
-5.2827416997969525
20
-0.91274169979695241
30
0
11
-5.2827416997969525
21
-1.2499999848935077
31
0
0
LINE
5
173
100
AcDbEntity
8
0
100
AcDbLine
10
-5.2827416997969525
20
-1.2499999848935077
30
0
11
-5.7427416997969525
21
-1.2499999848935077
31
0
0
LWPOLYLINE
5
174
100
AcDbEntity
8
0
100
AcDbPolyline
90
4
70
1
43
0.0
10
-5.2827416997969525
20
-1.2127416997969525
10
-5.7427416997969525
20
-1.2127416997969525
10
-5.7427416997969525
20
-1.0127416997969525
10
-5.2827416997969525
20
-1.0127416997969525
0
LINE
5
175
100
AcDbEntity
8
0
100
AcDbLine
10
-4.400000140422911
20
-3.3000001053171832
30
0
11
-5.0900001404229105
21
-3.3000001053171832
31
0
0
LINE
5
176
100
AcDbEntity
8
0
100
AcDbLine
10
-5.0900001404229105
20
-3.3000001053171832
30
0
11
-5.0900001404229105
21
-2.2000001053171832
31
0
0
LINE
5
177
100
AcDbEntity
8
0
100
AcDbLine
10
-5.0900001404229105
20
-2.2000001053171832
30
0
11
-4.400000140422911
21
-2.2000001053171832
31
0
0
LINE
5
178
100
AcDbEntity
8
0
100
AcDbLine
10
-4.400000140422911
20
-2.2000001053171832
30
0
11
-4.400000140422911
21
-3.3000001053171832
31
0
0
LINE
5
179
100
AcDbEntity
8
0
100
AcDbLine
10
-5.0900001404229105
20
-3.3000001053171832
30
0
11
-5.1500001643586346
21
-3.3000001053171832
31
0
0
LINE
5
180
100
AcDbEntity
8
0
100
AcDbLine
10
-5.1500001643586346
20
-3.3000001053171832
30
0
11
-5.1500001643586346
21
-2.1500000686157406
31
0
0
LINE
5
181
100
AcDbEntity
8
0
100
AcDbLine
10
-5.1500001643586346
20
-2.1500000686157406
30
0
11
-4.400000140422911
21
-2.1500000686157406
31
0
0
LINE
5
182
100
AcDbEntity
8
0
100
AcDbLine
10
-4.400000140422911
20
-2.1500000686157406
30
0
11
-4.400000140422911
21
-2.2000001053171832
31
0
0
LWPOLYLINE
5
183
100
AcDbEntity
8
0
100
AcDbPolyline
90
4
70
1
43
0.0
10
-4.6783630757591474
20
-2.2000001053171832
10
-4.5237818063987598
20
-2.2000001053171832
10
-4.5237818063987598
20
-2.1500000686157406
10
-4.6783630757591474
20
-2.1500000686157406
0
LWPOLYLINE
5
184
100
AcDbEntity
8
0
100
AcDbPolyline
90
4
70
1
43
0.0
10
-4.8243564968217365
20
-2.2000001053171832
10
-4.9682029558098764
20
-2.2000001053171832
10
-4.9682029558098764
20
-2.1500000686157406
10
-4.8243564968217365
20
-2.1500000686157406
0
ENDSEC
0
SECTION
2
OBJECTS
0
DICTIONARY
5
C
100
AcDbDictionary
3
ACAD_GROUP
350
D
3
ACAD_MLINESTYLE
350
17
0
DICTIONARY
5
D
100
AcDbDictionary
0
DICTIONARY
5
1A
330
C
100
AcDbDictionary
0
DICTIONARY
5
17
100
AcDbDictionary
0
ENDSEC
0
EOF
